<svg width="3837" height="4204" viewBox="0 0 3837 4204" fill="none" xmlns="http://www.w3.org/2000/svg">
<path d="M1351.43 664.502C1466.68 327.24 1932.68 317.026 2069.32 633.859L2080.88 664.694L2236.41 1119.52C2272.05 1223.82 2329.65 1319.27 2405.31 1399.43C2480.98 1479.58 2572.96 1542.58 2675.04 1584.17L2716.86 1599.78L3171.68 1755.11C3508.94 1870.36 3519.16 2336.35 3202.52 2472.99L3171.68 2484.56L2716.86 2640.08C2612.52 2675.7 2517.03 2733.29 2436.84 2808.96C2356.65 2884.62 2293.62 2976.61 2252.02 3078.72L2236.41 3120.34L2081.07 3575.36C1965.83 3912.62 1499.83 3922.83 1363.38 3606.19L1351.43 3575.36L1196.1 3120.54C1160.48 3016.19 1102.89 2920.71 1027.23 2840.52C951.557 2760.33 859.568 2697.3 757.466 2655.69L715.838 2640.08L261.017 2484.75C-76.4374 2369.5 -86.6516 1903.5 230.182 1767.06L261.017 1755.11L715.838 1599.78C820.145 1564.13 915.595 1506.54 995.75 1430.87C1075.91 1355.2 1138.9 1263.23 1180.49 1161.14L1196.1 1119.52L1351.43 664.502ZM1716.25 788.999L1560.92 1243.82C1506.65 1402.87 1418.36 1548.19 1302.2 1669.64C1186.04 1791.09 1044.8 1885.76 888.323 1947.06L840.143 1964.6L385.322 2119.93L840.143 2275.26C999.196 2329.53 1144.51 2417.82 1265.96 2533.98C1387.41 2650.14 1482.08 2791.38 1543.38 2947.86L1560.92 2996.04L1716.25 3450.86L1871.59 2996.04C1925.86 2836.99 2014.15 2691.67 2130.31 2570.22C2246.47 2448.77 2387.7 2354.1 2544.18 2292.8L2592.36 2275.46L3047.18 2119.93L2592.36 1964.6C2433.31 1910.32 2288 1822.03 2166.55 1705.88C2045.09 1589.72 1950.42 1448.48 1889.12 1292L1871.78 1243.82L1716.25 788.999ZM3258.02 3.48223e-05C3294.07 -4.54767e-05 3329.4 10.1137 3360 29.1917C3390.59 48.2698 3415.22 75.5471 3431.08 107.924L3440.33 130.472L3507.79 328.204L3705.71 395.656C3741.84 407.931 3773.52 430.657 3796.72 460.953C3819.92 491.248 3833.61 527.75 3836.04 565.832C3838.48 603.915 3829.55 641.863 3810.4 674.867C3791.25 707.872 3762.72 734.448 3728.45 751.226L3705.71 760.477L3507.98 827.929L3440.53 1025.85C3428.23 1061.97 3405.49 1093.63 3375.18 1116.82C3344.87 1140 3308.36 1153.66 3270.28 1156.08C3232.2 1158.49 3194.26 1149.55 3161.27 1130.38C3128.28 1111.21 3101.72 1082.68 3084.96 1048.4L3075.71 1025.85L3008.25 828.122L2810.33 760.669C2774.2 748.394 2742.52 725.668 2719.32 695.373C2696.12 665.077 2682.43 628.575 2680 590.493C2677.56 552.411 2686.48 514.462 2705.64 481.458C2724.79 448.453 2753.31 421.878 2787.59 405.099L2810.33 395.849L3008.06 328.396L3075.51 130.472C3088.51 92.3953 3113.09 59.3404 3145.82 35.9422C3178.55 12.544 3217.79 -0.0241443 3258.02 3.48223e-05Z" fill="black"/>
</svg>
