<svg width="39" height="34" viewBox="0 0 39 34" fill="none" xmlns="http://www.w3.org/2000/svg">
<path d="M38.9926 12.7758C38.9934 12.2465 38.8541 11.7265 38.5887 11.2685C38.3233 10.8105 37.9414 10.431 37.4818 10.1685L21.0584 0.421672C20.5851 0.145516 20.0469 0 19.4989 0C18.9509 0 18.4127 0.145516 17.9394 0.421672L1.49159 10.1685C1.03708 10.4382 0.660555 10.8215 0.399036 11.2808C0.137517 11.7401 0 12.2595 0 12.788C0 13.3165 0.137517 13.8359 0.399036 14.2952C0.660555 14.7544 1.03708 15.1378 1.49159 15.4075L6.17008 18.1366V24.9837C6.17289 25.5189 6.31334 26.0443 6.57793 26.5094C6.84251 26.9746 7.22232 27.3638 7.68084 27.6397L18.0369 33.6097C18.4992 33.8657 19.0191 34 19.5476 34C20.0762 34 20.596 33.8657 21.0584 33.6097L31.4144 27.6397C31.8729 27.3638 32.2527 26.9746 32.5173 26.5094C32.7819 26.0443 32.9224 25.5189 32.9252 24.9837V18.0635L35.9467 16.2847V22.9125H38.9926V12.7758ZM29.9037 24.9594L19.4989 30.9537L9.21597 24.9837V19.9397L17.9394 25.1299C18.4143 25.4013 18.9519 25.5441 19.4989 25.5441C20.0459 25.5441 20.5834 25.4013 21.0584 25.1299L29.8793 19.8666L29.9037 24.9594ZM19.4989 22.4983L3.05109 12.7514L19.4989 2.98022L35.9467 12.7271L19.4989 22.4983Z" fill="#82D8F4"/>
</svg>
