<svg width="34" height="34" viewBox="0 0 34 34" fill="none" xmlns="http://www.w3.org/2000/svg">
<path d="M20.2162 32.0001V25.9284C20.2162 25.1233 19.8964 24.3511 19.327 23.7818C18.7577 23.2124 17.9855 22.8926 17.1804 22.8926C16.3752 22.8926 15.603 23.2124 15.0337 23.7818C14.4644 24.3511 14.1445 25.1233 14.1445 25.9284V32.0001" stroke="#25A319" stroke-width="2.5" stroke-linecap="round" stroke-linejoin="round"/>
<path d="M26.2867 13.785L31.5189 16.4019C31.771 16.5279 31.9831 16.7215 32.1313 16.9612C32.2796 17.2009 32.3582 17.4771 32.3583 17.7589V28.9642C32.3583 29.7693 32.0385 30.5415 31.4692 31.1108C30.8998 31.6802 30.1277 32 29.3225 32H5.03583C4.23068 32 3.4585 31.6802 2.88917 31.1108C2.31985 30.5415 2 29.7693 2 28.9642V17.7589C2.00015 17.4771 2.07875 17.2009 2.22701 16.9612C2.37526 16.7215 2.58731 16.5279 2.83941 16.4019L8.07167 13.785M26.2867 6.19542V32M5.03583 7.71334L15.8221 2.32018C16.2435 2.10962 16.7081 2 17.1792 2C17.6502 2 18.1148 2.10962 18.5362 2.32018L29.3225 7.71334M8.07167 6.19542V32" stroke="#25A319" stroke-width="2.5" stroke-linecap="round" stroke-linejoin="round"/>
<path d="M17.1804 15.3021C18.857 15.3021 20.2162 13.9429 20.2162 12.2663C20.2162 10.5897 18.857 9.23047 17.1804 9.23047C15.5037 9.23047 14.1445 10.5897 14.1445 12.2663C14.1445 13.9429 15.5037 15.3021 17.1804 15.3021Z" stroke="#25A319" stroke-width="2.5" stroke-linecap="round" stroke-linejoin="round"/>
</svg>
