<svg width="393" height="393" viewBox="0 0 393 393" fill="none" xmlns="http://www.w3.org/2000/svg">
<path d="M289.396 17H104.167C81.0486 17 58.8774 26.1836 42.5305 42.5305C26.1836 58.8774 17 81.0486 17 104.167V289.396C17 312.514 26.1836 334.685 42.5305 351.032C58.8774 367.379 81.0486 376.562 104.167 376.562H253.287C264.737 376.563 276.074 374.308 286.652 369.925C297.23 365.543 306.841 359.12 314.936 351.023L351.023 314.936C359.12 306.841 365.543 297.23 369.925 286.652C374.308 276.074 376.563 264.737 376.562 253.287V104.167C376.562 81.0486 367.379 58.8774 351.032 42.5305C334.685 26.1836 312.514 17 289.396 17Z" stroke="#F0D476" stroke-width="32.6875" stroke-linecap="round" stroke-linejoin="round"/>
<path d="M376.552 234.917H300.281C282.943 234.917 266.314 241.804 254.054 254.065C241.794 266.325 234.906 282.953 234.906 300.292V376.562M104.156 104.167H267.594M104.156 191.333H213.115" stroke="#F0D476" stroke-width="32.6875" stroke-linecap="round" stroke-linejoin="round"/>
</svg>
