<svg width="237" height="237" viewBox="0 0 237 237" fill="none" xmlns="http://www.w3.org/2000/svg">
<path d="M225 154V35.6667C225 29.3899 222.507 23.3702 218.068 18.9318C213.63 14.4934 207.61 12 201.333 12H35.6667C29.3899 12 23.3702 14.4934 18.9318 18.9318C14.4934 23.3702 12 29.3899 12 35.6667V201.333C12 207.61 14.4934 213.63 18.9318 218.068C23.3702 222.507 29.3899 225 35.6667 225H154M225 154V156.035C224.999 162.312 222.504 168.33 218.066 172.768L172.768 218.066C168.33 222.504 162.312 224.999 156.035 225H154M225 154H177.667C171.39 154 165.37 156.493 160.932 160.932C156.493 165.37 154 171.39 154 177.667V225M59.3333 59.3333H177.667M59.3333 106.667H177.667M59.3333 154H106.667" stroke="#F2B2BC" stroke-width="23.6667" stroke-linecap="round" stroke-linejoin="round"/>
</svg>
