<svg width="267" height="267" viewBox="0 0 267 267" fill="none" xmlns="http://www.w3.org/2000/svg">
<path d="M26.7 53.3999H0V240.3C0 254.985 12.015 267 26.7 267H213.6V240.3H26.7V53.3999Z" fill="#A5E2F6"/>
<path d="M240.3 0H80.0999C65.4149 0 53.3999 12.015 53.3999 26.7V186.9C53.3999 201.585 65.4149 213.6 80.0999 213.6H240.3C254.985 213.6 267 201.585 267 186.9V26.7C267 12.015 254.985 0 240.3 0ZM160.333 173.55C152.457 173.55 146.316 167.276 146.316 159.533C146.316 151.656 152.59 145.649 160.333 145.649C168.21 145.649 174.217 151.656 174.217 159.533C174.084 167.276 168.21 173.55 160.333 173.55ZM193.708 91.1805C185.298 103.596 177.288 107.334 172.882 115.344C171.147 118.548 170.479 120.684 170.479 131.097H150.187C150.187 125.623 149.386 116.679 153.658 109.07C159.132 99.324 169.411 93.5835 175.419 85.0395C181.827 75.9615 178.222 59.1405 160.2 59.1405C148.452 59.1405 142.578 68.085 140.175 75.561L121.885 67.9515C126.958 52.866 140.442 40.05 160.066 40.05C176.487 40.05 187.834 47.526 193.575 56.871C198.514 65.0145 201.318 79.9665 193.708 91.1805Z" fill="#A5E2F6"/>
</svg>
