<svg width="389" height="387" viewBox="0 0 389 387" fill="none" xmlns="http://www.w3.org/2000/svg">
<path d="M26.1257 301.778C34.4853 327.553 59.8934 344.002 87.0043 344.002H88.0687C90.5559 356.141 97.1577 367.05 106.758 374.884C116.359 382.718 128.37 386.998 140.762 387C149.605 387 157.868 384.775 165.183 380.943C168.238 379.273 170.781 376.801 172.537 373.794C174.293 370.786 175.196 367.357 175.149 363.875V19.8509C175.177 15.4203 173.684 11.1141 170.919 7.65194C168.154 4.18975 164.285 1.78119 159.958 0.828683C150.25 -1.06284 140.189 0.304484 131.338 4.71826C116.941 11.6073 108.503 26.9914 108.503 42.9948V44.0591C97.729 41.8601 86.5392 43.0182 76.4435 47.3773C66.3478 51.7364 57.8317 59.0868 52.044 68.437C46.2562 77.7873 43.4752 88.6876 44.076 99.6678C44.6768 110.648 48.6305 121.18 55.4039 129.843C40.2393 132.231 26.4254 139.954 16.4493 151.622C6.47332 163.291 0.990666 178.137 0.988525 193.489C0.988525 216.284 12.8121 236.274 30.6538 247.904C22.3328 262.824 19.6043 281.691 26.1257 301.778ZM333.596 129.843C340.369 121.18 344.323 110.648 344.924 99.6678C345.525 88.6876 342.744 77.7873 336.956 68.437C331.168 59.0868 322.652 51.7364 312.556 47.3773C302.461 43.0182 291.271 41.8601 280.496 44.0591V42.9948C280.496 27.0108 272.04 11.6073 257.643 4.71826C248.797 0.308775 238.744 -1.05845 229.042 0.828683C224.715 1.78119 220.845 4.18975 218.081 7.65194C215.316 11.1141 213.823 15.4203 213.851 19.8509V363.856C213.851 370.919 217.566 377.634 223.836 380.924C231.151 384.775 239.395 387 248.238 387C260.632 386.997 272.645 382.715 282.247 374.877C291.848 367.038 298.448 356.125 300.931 343.982H302.015C329.106 343.982 354.534 327.534 362.894 301.758C369.415 281.672 366.686 262.804 358.365 247.885C367.454 242.012 374.928 233.958 380.107 224.457C385.285 214.956 388.002 204.309 388.011 193.489C388.009 178.137 382.527 163.291 372.55 151.622C362.574 139.954 348.761 132.231 333.596 129.843Z" fill="white"/>
</svg>
