<svg width="369" height="369" viewBox="0 0 369 369" fill="none" xmlns="http://www.w3.org/2000/svg">
<path d="M100.513 20.2253C132.292 3.97769 168.101 -2.70352 203.601 0.991462C208.164 1.46549 212.352 3.7327 215.243 7.29433C218.134 10.856 219.492 15.4203 219.018 19.9832C218.544 24.546 216.277 28.7337 212.715 31.625C209.154 34.5163 204.589 35.8742 200.026 35.4002C171.181 32.4001 142.085 37.8317 116.264 51.0364L111.145 53.7577C85.8576 67.9493 65.2292 89.1704 51.7596 114.849L49.1766 120.038C35.8539 148.003 31.5211 179.407 36.7741 209.934C42.0272 240.461 56.608 268.611 78.5117 290.514L82.6629 294.527C103.951 314.234 130.501 327.34 159.091 332.256L164.81 333.11C193.564 336.919 222.804 332.304 248.987 319.826L254.153 317.243C280.711 303.309 302.478 281.73 316.641 255.294C330.805 228.858 336.713 198.782 333.602 168.953L350.807 167.177L368.011 165.379C371.835 202.088 364.562 239.101 347.13 271.633C329.698 304.165 302.91 330.721 270.228 347.87L263.862 351.052C231.639 366.409 195.654 372.089 160.267 367.403L153.21 366.319C118.041 360.271 85.3801 344.153 59.1856 319.918L54.0658 314.983C27.1011 288.03 9.14865 253.385 2.67731 215.812C-3.79404 178.239 1.53354 139.585 17.9274 105.163L21.133 98.7981C37.7169 67.1934 63.1119 41.0774 94.2401 23.6155L100.513 20.2253ZM281.828 5.07347C284.247 2.65756 287.327 1.01266 290.681 0.346522C294.034 -0.319615 297.509 0.0228894 300.668 1.33078C303.827 2.63866 306.527 4.85327 308.428 7.69489C310.328 10.5365 311.344 13.8777 311.347 17.2964V57.6552H351.706L354.289 57.8858C357.232 58.3345 360.009 59.5352 362.352 61.3716C364.695 63.2081 366.525 65.6182 367.664 68.3687C368.802 71.1193 369.212 74.1172 368.853 77.0724C368.493 80.0276 367.377 82.84 365.613 85.2376L363.929 87.1979L294.743 156.384C291.502 159.629 287.106 161.454 282.52 161.458H273.756C276.51 172.016 277.369 182.979 276.293 193.837L275.278 200.871C272.116 218.416 263.938 234.669 251.733 247.664C239.528 260.659 223.819 269.839 206.507 274.094L199.519 275.524C183.124 278.225 166.303 276.448 150.835 270.381L144.308 267.544C129.346 260.297 116.621 249.141 107.478 235.257L103.788 229.169C94.5666 212.514 90.724 193.413 92.7872 174.488L93.8481 167.431C96.9281 151.101 104.362 135.906 115.365 123.452L120.277 118.286C132.205 106.723 147.033 98.5961 163.196 94.7623L164.949 94.4163C169.362 93.8088 173.839 94.9272 177.448 97.5387C181.057 100.15 183.519 104.053 184.321 108.435C185.124 112.817 184.205 117.339 181.756 121.06C179.307 124.781 175.517 127.414 171.176 128.41L166.909 129.586C158.448 132.3 150.729 136.933 144.354 143.124L141.287 146.329C134.368 154.124 129.756 163.649 127.842 173.819L127.173 178.247C125.882 190.076 128.283 202.015 134.045 212.425L136.352 216.231C142.069 224.9 150.021 231.864 159.368 236.387L163.45 238.186C173.121 241.986 183.639 243.101 193.892 241.415L198.251 240.492C209.071 237.835 218.889 232.099 226.518 223.979C234.147 215.858 239.26 205.702 241.238 194.737L241.861 190.355C242.86 180.485 241.295 170.524 237.318 161.435H232.014L196.728 196.72C195.145 198.419 193.235 199.783 191.114 200.728C188.992 201.673 186.702 202.182 184.379 202.223C182.057 202.264 179.75 201.836 177.596 200.966C175.442 200.096 173.486 198.802 171.843 197.159C170.201 195.517 168.906 193.56 168.036 191.407C167.166 189.253 166.739 186.946 166.78 184.623C166.821 182.301 167.329 180.011 168.275 177.889C169.22 175.767 170.583 173.858 172.283 172.274L207.568 136.989V86.4829C207.568 81.8936 209.39 77.4887 212.641 74.26L281.828 5.07347ZM349.008 149.973C351.267 149.737 353.551 149.948 355.729 150.594C357.907 151.24 359.936 152.309 361.701 153.74C363.465 155.17 364.931 156.934 366.014 158.931C367.096 160.928 367.775 163.119 368.011 165.379L333.602 168.953C333.131 164.394 334.489 159.834 337.378 156.275C340.266 152.717 344.449 150.45 349.008 149.973ZM242.161 93.6553V126.842H275.37L309.964 92.2485H276.754V59.0389L242.161 93.6553Z" fill="#92E29E"/>
</svg>
