<svg width="24" height="34" viewBox="0 0 24 34" fill="none" xmlns="http://www.w3.org/2000/svg">
<path d="M6.8 30.6H17V34H6.8V30.6ZM20.2402 19.9104C21.9912 17.8602 23.8 15.7403 23.8 11.9C23.8 5.3397 18.4603 0 11.9 0C5.3397 0 0 5.3397 0 11.9C0 15.7845 1.8139 17.8976 3.5717 19.941C4.1803 20.6516 4.811 21.3877 5.4145 22.2343C5.6593 22.5845 6.0605 23.9275 6.4192 25.5H5.1V28.9H18.7V25.5H17.3842C17.7463 23.9241 18.1492 22.5777 18.3923 22.2275C18.9907 21.3724 19.6265 20.6295 20.2402 19.9104ZM15.6094 20.2725C14.8716 21.3214 14.2562 23.8 13.8992 25.5H9.9025C9.5472 23.7966 8.9301 21.3129 8.1838 20.264C7.54493 19.3881 6.86649 18.5418 6.1506 17.7276C4.4948 15.7998 3.4 14.5248 3.4 11.9C3.4 7.2131 7.2131 3.4 11.9 3.4C16.5869 3.4 20.4 7.2131 20.4 11.9C20.4 14.4857 19.3069 15.7658 17.6545 17.7021C17.0204 18.4467 16.3013 19.2882 15.6094 20.2725Z" fill="#D3DA0A"/>
</svg>
