<svg width="50" height="70" viewBox="0 0 50 70" fill="none" xmlns="http://www.w3.org/2000/svg">
<path d="M14.5 63H35.5V70H14.5V63ZM42.171 40.992C45.776 36.771 49.5 32.4065 49.5 24.5C49.5 10.9935 38.5065 0 25 0C11.4935 0 0.5 10.9935 0.5 24.5C0.5 32.4975 4.2345 36.848 7.8535 41.055C9.1065 42.518 10.405 44.0335 11.6475 45.7765C12.1515 46.4975 12.9775 49.2625 13.716 52.5H11V59.5H39V52.5H36.291C37.0365 49.2555 37.866 46.4835 38.3665 45.7625C39.5985 44.002 40.9075 42.4725 42.171 40.992ZM32.637 41.7375C31.118 43.897 29.851 49 29.116 52.5H20.8875C20.156 48.993 18.8855 43.8795 17.349 41.72C16.0337 39.9167 14.6369 38.1742 13.163 36.498C9.754 32.529 7.5 29.904 7.5 24.5C7.5 14.8505 15.3505 7 25 7C34.6495 7 42.5 14.8505 42.5 24.5C42.5 29.8235 40.2495 32.459 36.8475 36.4455C35.542 37.9785 34.0615 39.711 32.637 41.7375Z" fill="#C5C032"/>
</svg>
