<svg width="3749" height="3689" viewBox="0 0 3749 3689" fill="none" xmlns="http://www.w3.org/2000/svg">
<path d="M1490.05 3481C1327.81 3444.03 1171.97 3383.14 1027.65 3300.33M2235.87 208C2606.56 292.663 2937.53 500.674 3174.59 797.976C3411.65 1095.28 3540.75 1464.26 3540.75 1844.5C3540.75 2224.74 3411.65 2593.72 3174.59 2891.02C2937.53 3188.33 2606.56 3396.34 2235.87 3481M479.289 2794.11C377.69 2646.27 300.45 2483.11 250.511 2310.82M208 1564.82C237.833 1387.69 295.26 1219.88 375.808 1066.06L407.318 1009.19M913.353 460.831C1087.91 340.919 1283.59 255.132 1490.05 208" stroke="black" stroke-width="414.978" stroke-linecap="round" stroke-linejoin="round"/>
<path d="M1303.6 1844.53L1676.51 2217.43L2422.32 1471.62" stroke="black" stroke-width="414.978" stroke-linecap="round" stroke-linejoin="round"/>
</svg>
