<svg width="217" height="218" viewBox="0 0 217 218" fill="none" xmlns="http://www.w3.org/2000/svg">
<path d="M205.279 5.38221L211.194 11.2966C219.343 19.4565 218.11 33.9217 208.417 43.6053L86.4498 165.572L46.9336 180.028C41.9715 181.852 37.1397 179.486 36.1573 174.765C35.8264 173.052 35.9827 171.281 36.6084 169.652L51.3443 129.795L172.971 8.15897C182.664 -1.52461 197.129 -2.77766 205.279 5.38221ZM81.1268 17.5117C82.4432 17.5117 83.7468 17.771 84.963 18.2748C86.1792 18.7786 87.2843 19.517 88.2152 20.4478C89.146 21.3787 89.8844 22.4838 90.3882 23.7C90.8919 24.9162 91.1512 26.2197 91.1512 27.5362C91.1512 28.8526 90.8919 30.1561 90.3882 31.3723C89.8844 32.5886 89.146 33.6936 88.2152 34.6245C87.2843 35.5553 86.1792 36.2937 84.963 36.7975C83.7468 37.3013 82.4432 37.5606 81.1268 37.5606H41.0292C35.7119 37.5606 30.6124 39.6729 26.8525 43.4327C23.0926 47.1926 20.9803 52.2921 20.9803 57.6094V177.902C20.9803 183.22 23.0926 188.319 26.8525 192.079C30.6124 195.839 35.7119 197.951 41.0292 197.951H161.322C166.639 197.951 171.739 195.839 175.499 192.079C179.259 188.319 181.371 183.22 181.371 177.902V137.805C181.371 135.146 182.427 132.596 184.307 130.716C186.187 128.836 188.737 127.78 191.395 127.78C194.054 127.78 196.604 128.836 198.484 130.716C200.364 132.596 201.42 135.146 201.42 137.805V177.902C201.42 188.537 197.195 198.736 189.675 206.256C182.156 213.775 171.957 218 161.322 218H41.0292C30.3946 218 20.1956 213.775 12.6758 206.256C5.15608 198.736 0.931519 188.537 0.931519 177.902V57.6094C0.931519 46.9748 5.15608 36.7758 12.6758 29.2561C20.1956 21.7363 30.3946 17.5117 41.0292 17.5117H81.1268Z" fill="#F8C57C"/>
</svg>
