<svg width="273" height="273" viewBox="0 0 273 273" fill="none" xmlns="http://www.w3.org/2000/svg">
<path d="M96.1175 47.2612C104.314 23.2742 137.457 22.5477 147.175 45.0818L147.998 47.2749L159.059 79.623C161.594 87.0416 165.691 93.8303 171.072 99.5311C176.454 105.232 182.996 109.712 190.256 112.67L193.23 113.78L225.579 124.828C249.566 133.025 250.292 166.168 227.772 175.886L225.579 176.709L193.23 187.77C185.809 190.303 179.018 194.399 173.315 199.781C167.611 205.162 163.129 211.705 160.17 218.967L159.059 221.927L148.012 254.289C139.815 278.276 106.672 279.003 96.9673 256.482L96.1175 254.289L85.0698 221.941C82.5365 214.52 78.4408 207.729 73.0591 202.025C67.6773 196.322 61.1348 191.839 53.873 188.88L50.9124 187.77L18.5642 176.722C-5.43644 168.526 -6.1629 135.382 16.3711 125.678L18.5642 124.828L50.9124 113.78C58.331 111.245 65.1197 107.149 70.8205 101.767C76.5213 96.3857 81.0018 89.8441 83.9596 82.5837L85.0698 79.623L96.1175 47.2612ZM122.065 56.1158L111.017 88.4639C107.157 99.7762 100.877 110.111 92.6159 118.749C84.3543 127.387 74.3092 134.12 63.18 138.48L59.7533 139.727L27.4051 150.775L59.7533 161.823C71.0656 165.683 81.4005 171.962 90.0385 180.224C98.6764 188.485 105.41 198.531 109.77 209.66L111.017 213.086L122.065 245.435L133.112 213.086C136.972 201.774 143.252 191.439 151.513 182.801C159.775 174.163 169.82 167.43 180.949 163.07L184.376 161.837L216.724 150.775L184.376 139.727C173.064 135.868 162.729 129.588 154.091 121.327C145.453 113.065 138.719 103.02 134.36 91.8906L133.126 88.4639L122.065 56.1158ZM231.719 2.47665e-06C234.284 -3.23443e-06 236.796 0.719311 238.972 2.0762C241.148 3.43308 242.9 5.37312 244.028 7.67583L244.686 9.27953L249.483 23.3427L263.56 28.1401C266.13 29.0132 268.383 30.6295 270.033 32.7842C271.683 34.9389 272.657 37.535 272.83 40.2436C273.003 42.9521 272.368 45.651 271.006 47.9984C269.644 50.3458 267.615 52.2359 265.178 53.4292L263.56 54.0872L249.497 58.8846L244.7 72.9615C243.825 75.5305 242.207 77.7822 240.052 79.431C237.896 81.0799 235.3 82.0517 232.592 82.2235C229.883 82.3953 227.185 81.7591 224.838 80.3958C222.492 79.0324 220.603 77.0032 219.41 74.5652L218.753 72.9615L213.955 58.8983L199.878 54.1009C197.308 53.2278 195.056 51.6115 193.405 49.4568C191.755 47.3021 190.782 44.706 190.609 41.9975C190.435 39.289 191.07 36.59 192.432 34.2426C193.795 31.8952 195.823 30.0051 198.261 28.8118L199.878 28.1538L213.941 23.3565L218.739 9.27953C219.663 6.57141 221.412 4.22045 223.74 2.55631C226.067 0.892164 228.858 -0.00171721 231.719 2.47665e-06Z" fill="#E9EB99"/>
</svg>
