<svg width="36" height="30" viewBox="0 0 36 30" fill="none" xmlns="http://www.w3.org/2000/svg">
<path d="M0 1.66676C0 1.22471 0.175603 0.80077 0.488179 0.488195C0.800755 0.175619 1.2247 1.56247e-05 1.66675 1.56247e-05H11.1183C13.8451 1.56247e-05 16.2675 1.31119 17.7853 3.33573C18.5608 2.29812 19.5681 1.45614 20.7268 0.876975C21.8855 0.297812 23.1636 -0.00249594 24.459 1.56247e-05H33.8928C34.3348 1.56247e-05 34.7587 0.175619 35.0713 0.488195C35.3839 0.80077 35.5595 1.22471 35.5595 1.66676V25.0012C35.5595 25.4433 35.3839 25.8672 35.0713 26.1798C34.7587 26.4924 34.3348 26.668 33.8928 26.668H23.8767C23.2201 26.668 22.5699 26.7973 21.9632 27.0486C21.3565 27.2999 20.8053 27.6682 20.341 28.1325L18.9587 29.5126C18.6462 29.8247 18.2226 30 17.7809 30C17.3392 30 16.9155 29.8247 16.603 29.5126L15.2207 28.1325C14.7564 27.6682 14.2052 27.2999 13.5985 27.0486C12.9919 26.7973 12.3417 26.668 11.685 26.668H1.66675C1.2247 26.668 0.800755 26.4924 0.488179 26.1798C0.175603 25.8672 0 25.4433 0 25.0012L0 1.66676ZM16.1141 24.6101L16.123 13.3362L16.1186 8.32931C16.1174 7.00393 15.5901 5.73324 14.6525 4.79648C13.7149 3.85971 12.4437 3.33351 11.1183 3.33351H3.33349V23.3345H11.6828C13.2505 23.3344 14.7864 23.7766 16.1141 24.6101ZM19.4565 8.33375L19.4476 24.6056C20.7745 23.7745 22.3087 23.3339 23.8745 23.3345H32.2238V3.33351H24.4567C23.1306 3.33351 21.8588 3.86032 20.921 4.79805C19.9833 5.73577 19.4565 7.00761 19.4565 8.33375Z" fill="#7592DD"/>
</svg>
