<svg width="40" height="40" viewBox="0 0 40 40" fill="none" xmlns="http://www.w3.org/2000/svg">
  <path d="M20 8C14.477 8 10 12.477 10 18C10 23.523 14.477 28 20 28C25.523 28 30 23.523 30 18C30 12.477 25.523 8 20 8ZM20 26C15.589 26 12 22.411 12 18C12 13.589 15.589 10 20 10C24.411 10 28 13.589 28 18C28 22.411 24.411 26 20 26Z" fill="#06B6D4"/>
  <path d="M16 16C16 14.895 16.895 14 18 14H22C23.105 14 24 14.895 24 16V20C24 21.105 23.105 22 22 22H18C16.895 22 16 21.105 16 20V16Z" fill="#06B6D4"/>
</svg> 